<svg
    xmlns="http://www.w3.org/2000/svg"
    viewBox="0 0 122 122"
    id="vector">
    <path
        id="path"
        d="M 20 122 L 102 122 C 113 122 122 113 122 102 L 122 20 C 122 9 113 0 102 0 L 20 0 C 9 0 0 9 0 20 L 0 102 C 0 113 9 122 20 122 Z M 14 20 C 14 16.7 16.7 14 20 14 L 102 14 C 105.3 14 108 16.7 108 20 L 108 102 C 108 105.3 105.3 108 102 108 L 20 108 C 16.7 108 14 105.3 14 102 L 14 20 Z"
        fill="#000000"/>
    <path
        id="path_1"
        d="M 61 61.2 M 43 61.2 C 42.988 57.392 44.185 53.676 46.418 50.591 C 48.65 47.505 51.806 45.207 55.427 44.027 C 59.048 42.848 62.952 42.848 66.573 44.027 C 70.194 45.207 73.35 47.505 75.582 50.591 C 77.815 53.676 79.012 57.392 79 61.2 C 79.012 65.008 77.815 68.724 75.582 71.809 C 73.35 74.895 70.194 77.193 66.573 78.373 C 62.952 79.552 59.048 79.552 55.427 78.373 C 51.806 77.193 48.65 74.895 46.418 71.809 C 44.185 68.724 42.988 65.008 43 61.2"
        fill="#000000"/>
</svg>
